<svg width="661" height="632" viewBox="0 0 661 632" fill="none" xmlns="http://www.w3.org/2000/svg">
<path d="M271.5 303.5C271.5 332.5 261.5 356.667 241.5 376C221.833 395 191.667 404.5 151 404.5H84V550H38.5V201.5H151C190.333 201.5 220.167 211 240.5 230C261.167 249 271.5 273.5 271.5 303.5ZM151 367C176.333 367 195 361.5 207 350.5C219 339.5 225 323.833 225 303.5C225 260.5 200.333 239 151 239H84V367H151ZM534.051 472.5H382.051L354.051 550H306.051L432.051 203.5H484.551L610.051 550H562.051L534.051 472.5ZM521.051 435.5L458.051 259.5L395.051 435.5H521.051Z" fill="white"/>
</svg>
